<?xml version="1.0" encoding="UTF-8"?>
<svg width="97px" height="57px" viewBox="0 0 97 57" version="1.1" xmlns="http://www.w3.org/2000/svg" xmlns:xlink="http://www.w3.org/1999/xlink">
    <title>Group Copy 2</title>
    <defs>
        <linearGradient x1="47.879583%" y1="45.1828929%" x2="0%" y2="-2.86778638%" id="linearGradient-1">
            <stop stop-color="#FFFFFF" stop-opacity="0" offset="0%"></stop>
            <stop stop-color="#FFFFFF" offset="100%"></stop>
        </linearGradient>
        <path d="M0.500002699,36.8749785 C7.11914873,28.7562191 16.9974952,24.9496881 30.1350421,25.4553853 C51.5340277,26.2790861 63.8264915,42.779055 74.0774881,43.1736417 C81.4377944,43.4569584 85.9463276,41.6560498 87.6030879,37.770916 C85.599807,50.9664265 79.566195,57.3705371 69.5022519,56.9832478 C55.7264131,56.4528353 37.7342768,35.85134 19.3882991,35.1451571 C11.3786724,34.8368464 5.08257357,35.4134536 0.500002699,36.8749785 Z M39.4328693,13.11016 C60.9127427,13.11016 69.7192152,24.2473596 80.0089604,24.2473596 C87.3970884,24.2473596 91.771813,22.1255133 93.133134,17.8818207 C92.161419,31.4209176 86.6245708,38.190466 76.5225895,38.190466 C62.6946732,38.190466 54.5748245,22.5864795 28.6723034,22.5864795 C20.6324005,22.5864795 14.2539244,24.6909162 9.53687519,28.8997898 C16.2803313,18.3733699 26.2456626,13.11016 39.4328693,13.11016 Z M55.2659274,0 C73.3468294,0.607991355 75.5266563,7.19622554 85.6161392,7.19622554 C92.4504202,7.19622554 96.0727096,6.23910428 96.4830074,4.32486177 L96.5000027,4.225 L96.4871536,4.37708542 C95.5434891,14.6243582 90.3025059,19.8145354 80.7642039,19.9476168 L80.3854599,19.9502434 C68.3846174,19.1467958 62.5618864,8.51019251 40.7263544,9.74987774 C33.0262315,10.1870427 26.7718954,12.1406228 21.9633461,15.6106181 C31.234514,5.20353937 42.3353744,0 55.2659274,0 Z" id="path-2"></path>
        <linearGradient x1="37.1228399%" y1="48.3490556%" x2="128.318456%" y2="40.8833481%" id="linearGradient-4">
            <stop stop-color="#FFFFFF" stop-opacity="0" offset="0%"></stop>
            <stop stop-color="#FFFFFF" offset="100%"></stop>
        </linearGradient>
        <linearGradient x1="61.2835501%" y1="50.9363719%" x2="-21.5311672%" y2="34.7772424%" id="linearGradient-5">
            <stop stop-color="#000000" stop-opacity="0" offset="0%"></stop>
            <stop stop-color="#000000" offset="100%"></stop>
        </linearGradient>
        <path d="M8.5,28.8675999 C11.4891363,25.4094223 13.6055245,23.4110423 14.8491645,22.87246 C49.7584209,7.75433309 56.9420632,32.7071741 74.3246983,32.7071741 C87.7269719,32.7071741 91.3161204,26.1152695 92.4268293,17.5598028 C92.9284594,13.6958923 95.9528496,17.0106799 101.5,27.5041658 C97.9205519,27.3717458 94.0131987,29.1060819 89.7779404,32.7071741 C85.830656,36.0634121 79.0896101,41.3739891 73.5019524,39.6719133 C63.4922929,36.6228362 55.8497442,32.3949773 48.1185279,28.8675999 C42.2360037,26.1836907 37.3507207,22.87246 33.0971125,22.87246 C20.5280696,22.87246 12.3290321,24.87084 8.5,28.8675999 Z" id="path-6"></path>
        <linearGradient x1="37.1228399%" y1="47.9343894%" x2="128.318456%" y2="38.593527%" id="linearGradient-7">
            <stop stop-color="#FFFFFF" stop-opacity="0" offset="0%"></stop>
            <stop stop-color="#FFFFFF" offset="100%"></stop>
        </linearGradient>
        <linearGradient x1="61.2835501%" y1="51.1715595%" x2="-21.5311672%" y2="30.9537562%" id="linearGradient-8">
            <stop stop-color="#000000" stop-opacity="0" offset="0%"></stop>
            <stop stop-color="#000000" offset="100%"></stop>
        </linearGradient>
        <path d="M17.5,17.9511734 C17.5600859,17.7558823 17.7492351,17.4734542 18.0674477,17.1038893 C19.2913896,15.6824308 22.4707733,13.2408331 27.7074506,11.0676078 C62.5297265,-3.38366477 66.0144357,12.8860433 83.3624439,12.8860433 C96.7380197,12.8860433 96.3559986,2.11110854 97.4644949,-6.0710759 C97.9651258,-9.76640072 103.643627,-2.43653073 114.5,15.9185341 C110.028966,7.31048165 105.680038,4.72844217 101.453216,8.17241562 C97.5137951,11.3822182 88.9389708,22.4655939 83.3624439,20.8377811 C73.372724,17.9217379 68.9201962,20.2875878 61.2043809,16.9141129 C55.3335748,14.3473049 48.1933076,13.2548068 44.1614408,12.8860433 C31.8726006,11.7620785 22.9854537,13.4504552 17.5,17.9511734 Z" id="path-9"></path>
        <linearGradient x1="37.5155969%" y1="44.41633%" x2="130.396265%" y2="21.7047631%" id="linearGradient-10">
            <stop stop-color="#FFFFFF" stop-opacity="0" offset="0%"></stop>
            <stop stop-color="#FFFFFF" offset="100%"></stop>
        </linearGradient>
        <linearGradient x1="61.0583643%" y1="53.2345154%" x2="-17.938454%" y2="-0.683149532%" id="linearGradient-11">
            <stop stop-color="#000000" stop-opacity="0" offset="0%"></stop>
            <stop stop-color="#000000" offset="100%"></stop>
        </linearGradient>
        <path d="M-8.5,42.9885799 C-7.81421895,40.2696413 -3.78402644,37.4972529 3.59057753,34.6714144 C16.1075637,29.8750917 29.8806507,32.0791996 40.2764367,37.0019659 C50.9401087,42.0515856 58.3743811,47.4127446 65.4809812,49.8430992 C77.9729173,54.115161 84.6643127,46.9402368 86.0387428,38.5694467 C86.6594775,34.7889418 88.8132299,40.4310324 92.5,55.4957185 C89.9533071,66.6870856 86.5112608,73.9720478 82.1738611,77.3506049 C78.1313803,80.499439 68.6176638,78.5042517 63.0961343,76.6156786 C53.2049361,73.2325126 43.1256028,50.1905638 35.5223785,46.424601 C29.7372408,43.559157 23.4965996,42.6646295 19.4781904,42.1301793 C7.23036829,40.5012135 -2.09569519,40.787347 -8.5,42.9885799 Z" id="path-12"></path>
    </defs>
    <g id="Page-1" stroke="none" stroke-width="1" fill="none" fill-rule="evenodd">
        <g id="Splash" transform="translate(-158.000000, -330.000000)">
            <g id="logo" transform="translate(118.000000, 294.000000)">
                <g id="Group-Copy-2" transform="translate(40.000000, 36.000000)">
                    <mask id="mask-3" fill="white">
                        <use xlink:href="#path-2"></use>
                    </mask>
                    <g id="Mask">
                        <use fill="#19C3CA" xlink:href="#path-2"></use>
                        <use fill="url(#linearGradient-1)" xlink:href="#path-2"></use>
                    </g>
                    <g id="Rectangle" opacity="0.303269159" mask="url(#mask-3)">
                        <use fill="url(#linearGradient-4)" xlink:href="#path-6"></use>
                        <use fill="url(#linearGradient-5)" xlink:href="#path-6"></use>
                    </g>
                    <g id="Rectangle-Copy-2" opacity="0.303269159" mask="url(#mask-3)">
                        <use fill="url(#linearGradient-7)" xlink:href="#path-9"></use>
                        <use fill="url(#linearGradient-8)" xlink:href="#path-9"></use>
                    </g>
                    <g id="Rectangle-Copy" opacity="0.303269159" mask="url(#mask-3)">
                        <use fill="url(#linearGradient-10)" xlink:href="#path-12"></use>
                        <use fill="url(#linearGradient-11)" xlink:href="#path-12"></use>
                    </g>
                </g>
            </g>
        </g>
    </g>
</svg>