<?xml version="1.0" encoding="UTF-8"?>
<svg width="18px" height="22px" viewBox="0 0 18 22" version="1.1" xmlns="http://www.w3.org/2000/svg" xmlns:xlink="http://www.w3.org/1999/xlink">
    <title>Combined Shape</title>
    <defs>
        <linearGradient x1="50%" y1="-2.75713571%" x2="50%" y2="100%" id="linearGradient-1">
            <stop stop-color="#00CDD0" offset="0%"></stop>
            <stop stop-color="#48B1BF" offset="100%"></stop>
        </linearGradient>
    </defs>
    <g id="Page-1" stroke="none" stroke-width="1" fill="none" fill-rule="evenodd">
        <g id="Location" transform="translate(-40.000000, -632.000000)" fill="url(#linearGradient-1)">
            <g id="modal" transform="translate(20.000000, 604.000000)">
                <path d="M29,28 C33.9705627,28 38,32.0294372 38,37 C38,44 29,50 29,50 C29,50 20,44 20,37 C20,32.0294372 24.0294373,28 29,28 Z M29,33.9999999 C27.3431458,33.9999999 26,35.3431456 26,36.9999999 C26,38.6568541 27.3431458,39.9999999 29,39.9999999 C30.6568542,39.9999999 32,38.6568541 32,36.9999999 C32,35.3431456 30.6568542,33.9999999 29,33.9999999 Z" id="Combined-Shape"></path>
            </g>
        </g>
    </g>
</svg>